<mxfile host="www.draw.io" modified="2019-11-27T15:57:19.380Z" agent="Mozilla/5.0 (Windows NT 6.2; WOW64; rv:68.0) Gecko/20100101 Firefox/68.0" etag="T95e9gsz-tciclIGdkx7" version="12.3.2" type="gitlab" pages="1">
  <diagram name="Page-1" id="c37626ed-c26b-45fb-9056-f9ebc6bb27b6">
    <mxGraphModel dx="1176" dy="805" grid="1" gridSize="10" guides="1" tooltips="1" connect="1" arrows="1" fold="1" page="1" pageScale="1" pageWidth="1400" pageHeight="850" background="#ffffff" math="0" shadow="0">
      <root>
        <mxCell id="0"/>
        <mxCell id="1" parent="0"/>
        <mxCell id="_vRwd4Q6oaDm9BluBOAR-1" value="&lt;div&gt;NAT&lt;/div&gt;" style="ellipse;shape=cloud;whiteSpace=wrap;html=1;" vertex="1" parent="1">
          <mxGeometry x="810" y="80" width="120" height="80" as="geometry"/>
        </mxCell>
        <mxCell id="_vRwd4Q6oaDm9BluBOAR-11" style="edgeStyle=orthogonalEdgeStyle;rounded=0;orthogonalLoop=1;jettySize=auto;html=1;entryX=0.55;entryY=0.95;entryDx=0;entryDy=0;entryPerimeter=0;" edge="1" parent="1" source="_vRwd4Q6oaDm9BluBOAR-2" target="_vRwd4Q6oaDm9BluBOAR-1">
          <mxGeometry relative="1" as="geometry"/>
        </mxCell>
        <mxCell id="_vRwd4Q6oaDm9BluBOAR-12" style="edgeStyle=orthogonalEdgeStyle;rounded=0;orthogonalLoop=1;jettySize=auto;html=1;" edge="1" parent="1" source="_vRwd4Q6oaDm9BluBOAR-2" target="_vRwd4Q6oaDm9BluBOAR-9">
          <mxGeometry relative="1" as="geometry"/>
        </mxCell>
        <mxCell id="_vRwd4Q6oaDm9BluBOAR-17" style="edgeStyle=orthogonalEdgeStyle;rounded=0;orthogonalLoop=1;jettySize=auto;html=1;" edge="1" parent="1" source="_vRwd4Q6oaDm9BluBOAR-2" target="_vRwd4Q6oaDm9BluBOAR-10">
          <mxGeometry relative="1" as="geometry"/>
        </mxCell>
        <mxCell id="_vRwd4Q6oaDm9BluBOAR-2" value="" style="image;html=1;labelBackgroundColor=#ffffff;image=img/lib/clip_art/networking/Router_128x128.png" vertex="1" parent="1">
          <mxGeometry x="840" y="230" width="80" height="80" as="geometry"/>
        </mxCell>
        <mxCell id="_vRwd4Q6oaDm9BluBOAR-15" style="edgeStyle=orthogonalEdgeStyle;rounded=0;orthogonalLoop=1;jettySize=auto;html=1;entryX=0.988;entryY=0.65;entryDx=0;entryDy=0;entryPerimeter=0;" edge="1" parent="1" source="_vRwd4Q6oaDm9BluBOAR-8" target="_vRwd4Q6oaDm9BluBOAR-2">
          <mxGeometry relative="1" as="geometry"/>
        </mxCell>
        <mxCell id="_vRwd4Q6oaDm9BluBOAR-22" style="edgeStyle=orthogonalEdgeStyle;rounded=0;orthogonalLoop=1;jettySize=auto;html=1;" edge="1" parent="1" source="_vRwd4Q6oaDm9BluBOAR-8" target="_vRwd4Q6oaDm9BluBOAR-21">
          <mxGeometry relative="1" as="geometry"/>
        </mxCell>
        <mxCell id="_vRwd4Q6oaDm9BluBOAR-8" value="" style="image;html=1;labelBackgroundColor=#ffffff;image=img/lib/clip_art/networking/Router_128x128.png" vertex="1" parent="1">
          <mxGeometry x="970" y="320" width="80" height="80" as="geometry"/>
        </mxCell>
        <mxCell id="_vRwd4Q6oaDm9BluBOAR-16" style="edgeStyle=orthogonalEdgeStyle;rounded=0;orthogonalLoop=1;jettySize=auto;html=1;" edge="1" parent="1" source="_vRwd4Q6oaDm9BluBOAR-9" target="_vRwd4Q6oaDm9BluBOAR-8">
          <mxGeometry relative="1" as="geometry"/>
        </mxCell>
        <mxCell id="_vRwd4Q6oaDm9BluBOAR-23" style="edgeStyle=orthogonalEdgeStyle;rounded=0;orthogonalLoop=1;jettySize=auto;html=1;" edge="1" parent="1" source="_vRwd4Q6oaDm9BluBOAR-9" target="_vRwd4Q6oaDm9BluBOAR-20">
          <mxGeometry relative="1" as="geometry"/>
        </mxCell>
        <mxCell id="_vRwd4Q6oaDm9BluBOAR-9" value="" style="image;html=1;labelBackgroundColor=#ffffff;image=img/lib/clip_art/networking/Router_128x128.png" vertex="1" parent="1">
          <mxGeometry x="710" y="320" width="80" height="80" as="geometry"/>
        </mxCell>
        <mxCell id="_vRwd4Q6oaDm9BluBOAR-13" style="edgeStyle=orthogonalEdgeStyle;rounded=0;orthogonalLoop=1;jettySize=auto;html=1;" edge="1" parent="1" source="_vRwd4Q6oaDm9BluBOAR-10" target="_vRwd4Q6oaDm9BluBOAR-9">
          <mxGeometry relative="1" as="geometry"/>
        </mxCell>
        <mxCell id="_vRwd4Q6oaDm9BluBOAR-14" style="edgeStyle=orthogonalEdgeStyle;rounded=0;orthogonalLoop=1;jettySize=auto;html=1;" edge="1" parent="1" source="_vRwd4Q6oaDm9BluBOAR-10" target="_vRwd4Q6oaDm9BluBOAR-8">
          <mxGeometry relative="1" as="geometry"/>
        </mxCell>
        <mxCell id="_vRwd4Q6oaDm9BluBOAR-10" value="" style="image;html=1;labelBackgroundColor=#ffffff;image=img/lib/clip_art/networking/Router_128x128.png" vertex="1" parent="1">
          <mxGeometry x="840" y="425" width="80" height="80" as="geometry"/>
        </mxCell>
        <mxCell id="_vRwd4Q6oaDm9BluBOAR-18" value="" style="points=[];aspect=fixed;html=1;align=center;shadow=0;dashed=0;image;image=img/lib/allied_telesis/computer_and_terminals/Personal_Computer.svg;" vertex="1" parent="1">
          <mxGeometry x="510" y="130" width="45.6" height="61.800000000000004" as="geometry"/>
        </mxCell>
        <mxCell id="_vRwd4Q6oaDm9BluBOAR-19" value="" style="points=[];aspect=fixed;html=1;align=center;shadow=0;dashed=0;image;image=img/lib/allied_telesis/computer_and_terminals/Personal_Computer.svg;" vertex="1" parent="1">
          <mxGeometry x="1160" y="150" width="45.6" height="61.800000000000004" as="geometry"/>
        </mxCell>
        <mxCell id="_vRwd4Q6oaDm9BluBOAR-24" style="edgeStyle=orthogonalEdgeStyle;rounded=0;orthogonalLoop=1;jettySize=auto;html=1;entryX=0.439;entryY=0.987;entryDx=0;entryDy=0;entryPerimeter=0;" edge="1" parent="1" source="_vRwd4Q6oaDm9BluBOAR-20" target="_vRwd4Q6oaDm9BluBOAR-18">
          <mxGeometry relative="1" as="geometry"/>
        </mxCell>
        <mxCell id="_vRwd4Q6oaDm9BluBOAR-30" style="edgeStyle=orthogonalEdgeStyle;rounded=0;orthogonalLoop=1;jettySize=auto;html=1;" edge="1" parent="1" source="_vRwd4Q6oaDm9BluBOAR-20" target="_vRwd4Q6oaDm9BluBOAR-27">
          <mxGeometry relative="1" as="geometry"/>
        </mxCell>
        <mxCell id="_vRwd4Q6oaDm9BluBOAR-20" value="" style="image;html=1;labelBackgroundColor=#ffffff;image=img/lib/clip_art/networking/Switch_128x128.png" vertex="1" parent="1">
          <mxGeometry x="476" y="320" width="80" height="80" as="geometry"/>
        </mxCell>
        <mxCell id="_vRwd4Q6oaDm9BluBOAR-25" style="edgeStyle=orthogonalEdgeStyle;rounded=0;orthogonalLoop=1;jettySize=auto;html=1;" edge="1" parent="1" source="_vRwd4Q6oaDm9BluBOAR-21" target="_vRwd4Q6oaDm9BluBOAR-19">
          <mxGeometry relative="1" as="geometry"/>
        </mxCell>
        <mxCell id="_vRwd4Q6oaDm9BluBOAR-29" style="edgeStyle=orthogonalEdgeStyle;rounded=0;orthogonalLoop=1;jettySize=auto;html=1;" edge="1" parent="1" source="_vRwd4Q6oaDm9BluBOAR-21" target="_vRwd4Q6oaDm9BluBOAR-28">
          <mxGeometry relative="1" as="geometry"/>
        </mxCell>
        <mxCell id="_vRwd4Q6oaDm9BluBOAR-21" value="" style="image;html=1;labelBackgroundColor=#ffffff;image=img/lib/clip_art/networking/Switch_128x128.png" vertex="1" parent="1">
          <mxGeometry x="1183" y="320" width="80" height="80" as="geometry"/>
        </mxCell>
        <mxCell id="_vRwd4Q6oaDm9BluBOAR-27" value="" style="image;html=1;labelBackgroundColor=#ffffff;image=img/lib/clip_art/computers/Server_Rack_128x128.png" vertex="1" parent="1">
          <mxGeometry x="300" y="320" width="80" height="80" as="geometry"/>
        </mxCell>
        <mxCell id="_vRwd4Q6oaDm9BluBOAR-28" value="" style="image;html=1;labelBackgroundColor=#ffffff;image=img/lib/clip_art/computers/Server_Rack_128x128.png" vertex="1" parent="1">
          <mxGeometry x="1340" y="320" width="80" height="80" as="geometry"/>
        </mxCell>
      </root>
    </mxGraphModel>
  </diagram>
</mxfile>
